<?xml version="1.0" encoding="UTF-8" standalone="no"?>
<svg
   xmlns:dc="http://purl.org/dc/elements/1.1/"
   xmlns:cc="http://creativecommons.org/ns#"
   xmlns:rdf="http://www.w3.org/1999/02/22-rdf-syntax-ns#"
   xmlns:svg="http://www.w3.org/2000/svg"
   xmlns="http://www.w3.org/2000/svg"
   xmlns:sodipodi="http://sodipodi.sourceforge.net/DTD/sodipodi-0.dtd"
   xmlns:inkscape="http://www.inkscape.org/namespaces/inkscape"
   height="512pt"
   viewBox="0 0 512 512"
   width="512pt"
   version="1.1"
   id="svg845"
   sodipodi:docname="add.svg"
   inkscape:version="1.0.1 (3bc2e813f5, 2020-09-07)">
  <metadata
     id="metadata851">
    <rdf:RDF>
      <cc:Work
         rdf:about="">
        <dc:format>image/svg+xml</dc:format>
        <dc:type
           rdf:resource="http://purl.org/dc/dcmitype/StillImage" />
      </cc:Work>
    </rdf:RDF>
  </metadata>
  <defs
     id="defs849" />
  <sodipodi:namedview
     pagecolor="#ffffff"
     bordercolor="#666666"
     borderopacity="1"
     objecttolerance="10"
     gridtolerance="10"
     guidetolerance="10"
     inkscape:pageopacity="0"
     inkscape:pageshadow="2"
     inkscape:window-width="1920"
     inkscape:window-height="1017"
     id="namedview847"
     showgrid="false"
     inkscape:zoom="1.0004883"
     inkscape:cx="341.33333"
     inkscape:cy="341.33333"
     inkscape:window-x="4"
     inkscape:window-y="-8"
     inkscape:window-maximized="1"
     inkscape:current-layer="svg845" />
  <path
     d="m256 0c-141.164062 0-256 114.835938-256 256s114.835938 256 256 256 256-114.835938 256-256-114.835938-256-256-256zm112 277.332031h-90.667969v90.667969c0 11.777344-9.554687 21.332031-21.332031 21.332031s-21.332031-9.554687-21.332031-21.332031v-90.667969h-90.667969c-11.777344 0-21.332031-9.554687-21.332031-21.332031s9.554687-21.332031 21.332031-21.332031h90.667969v-90.667969c0-11.777344 9.554687-21.332031 21.332031-21.332031s21.332031 9.554687 21.332031 21.332031v90.667969h90.667969c11.777344 0 21.332031 9.554687 21.332031 21.332031s-9.554687 21.332031-21.332031 21.332031zm0 0"
     id="path843"
     style="fill:#2ba0ff;fill-opacity:1" />
</svg>
