<?xml version="1.0" encoding="UTF-8" standalone="no"?>
<svg
   xmlns:osb="http://www.openswatchbook.org/uri/2009/osb"
   xmlns:dc="http://purl.org/dc/elements/1.1/"
   xmlns:cc="http://creativecommons.org/ns#"
   xmlns:rdf="http://www.w3.org/1999/02/22-rdf-syntax-ns#"
   xmlns:svg="http://www.w3.org/2000/svg"
   xmlns="http://www.w3.org/2000/svg"
   xmlns:sodipodi="http://sodipodi.sourceforge.net/DTD/sodipodi-0.dtd"
   xmlns:inkscape="http://www.inkscape.org/namespaces/inkscape"
   version="1.1"
   id="Capa_1"
   x="0px"
   y="0px"
   viewBox="0 0 512 452.328"
   xml:space="preserve"
   sodipodi:docname="like.svg"
   inkscape:export-filename="C:\Me\Amigos\ilovesemicolons\ilovesemicolons\public\like.png"
   inkscape:export-xdpi="96"
   inkscape:export-ydpi="96"
   width="512"
   height="452.328"
   inkscape:version="1.0.1 (3bc2e813f5, 2020-09-07)"><metadata
   id="metadata909"><rdf:RDF><cc:Work
       rdf:about=""><dc:format>image/svg+xml</dc:format><dc:type
         rdf:resource="http://purl.org/dc/dcmitype/StillImage" /></cc:Work></rdf:RDF></metadata><defs
   id="defs907"><linearGradient
     id="linearGradient917"
     osb:paint="solid"><stop
       style="stop-color:#fd3018;stop-opacity:1;"
       offset="0"
       id="stop915" /></linearGradient></defs><sodipodi:namedview
   pagecolor="#ffffff"
   bordercolor="#666666"
   borderopacity="1"
   objecttolerance="10"
   gridtolerance="10"
   guidetolerance="10"
   inkscape:pageopacity="0"
   inkscape:pageshadow="2"
   inkscape:window-width="1920"
   inkscape:window-height="1001"
   id="namedview905"
   showgrid="false"
   inkscape:zoom="0.20263672"
   inkscape:cx="720.58224"
   inkscape:cy="-861.92605"
   inkscape:window-x="-9"
   inkscape:window-y="-9"
   inkscape:window-maximized="1"
   inkscape:current-layer="Capa_1" />
<path
   style="fill:#fd3018"
   d="m 256,452.328 c -3.526,0 -7.052,-1.238 -9.88,-3.713 l -0.655,-0.574 C 223.652,428.956 203.163,411.497 183.35,394.612 130.179,349.303 84.262,310.175 52.345,272.215 16.633,229.742 0,190.118 0,147.515 0,108.377 13.267,71.769 37.355,44.435 62.609,15.78 97.642,0 136,0 c 53.948,0 88.103,32.22 107.255,59.25 4.97,7.014 9.196,14.047 12.745,20.665 3.549,-6.618 7.776,-13.651 12.745,-20.665 C 287.897,32.221 322.052,0 376,0 c 38.358,0 73.391,15.781 98.644,44.435 24.089,27.334 37.356,63.942 37.356,103.08 0,42.603 -16.633,82.228 -52.345,124.7 -31.917,37.96 -77.834,77.088 -131.002,122.395 -19.816,16.887 -40.305,34.346 -62.118,53.431 l -0.655,0.574 c -2.828,2.476 -6.354,3.713 -9.88,3.713 z M 136,30 C 106.379,30 79.34,42.171 59.862,64.271 40.605,86.121 30,115.685 30,147.515 c 0,77.007 68.745,135.588 172.804,224.261 17.083,14.557 34.662,29.537 53.196,45.648 18.535,-16.112 36.113,-31.091 53.193,-45.646 C 413.255,283.103 482,224.522 482,147.515 482,115.685 471.395,86.121 452.137,64.27 432.66,42.171 405.621,30 376,30 c -41.129,0 -67.716,25.338 -82.776,46.594 -13.509,19.065 -20.558,38.282 -22.962,45.66 -2.011,6.175 -7.768,10.354 -14.262,10.354 -6.494,0 -12.251,-4.179 -14.262,-10.354 -2.404,-7.377 -9.453,-26.595 -22.962,-45.659 C 203.716,55.338 177.129,30 136,30 Z"
   id="path872" />
<g
   id="g874"
   transform="translate(0,-29.836)">
</g>
<g
   id="g876"
   transform="translate(0,-29.836)">
</g>
<g
   id="g878"
   transform="translate(0,-29.836)">
</g>
<g
   id="g880"
   transform="translate(0,-29.836)">
</g>
<g
   id="g882"
   transform="translate(0,-29.836)">
</g>
<g
   id="g884"
   transform="translate(0,-29.836)">
</g>
<g
   id="g886"
   transform="translate(0,-29.836)">
</g>
<g
   id="g888"
   transform="translate(0,-29.836)">
</g>
<g
   id="g890"
   transform="translate(0,-29.836)">
</g>
<g
   id="g892"
   transform="translate(0,-29.836)">
</g>
<g
   id="g894"
   transform="translate(0,-29.836)">
</g>
<g
   id="g896"
   transform="translate(0,-29.836)">
</g>
<g
   id="g898"
   transform="translate(0,-29.836)">
</g>
<g
   id="g900"
   transform="translate(0,-29.836)">
</g>
<g
   id="g902"
   transform="translate(0,-29.836)">
</g>
<path
   style="fill:#fd3018;stroke-width:0.616867;fill-opacity:1"
   d="M 223.92289,389.4074 C 140.36731,317.88181 126.96633,305.9847 103.07678,282.12275 59.678735,238.77482 39.015754,205.70108 32.014459,168.37841 30.676884,161.24803 30.169283,140.80859 31.124687,132.55016 35.695843,93.0375 56.170885,60.187058 86.978313,42.937824 103.84451,33.494355 125.11027,28.956764 144.146,30.739644 c 23.00378,2.154526 41.6967,11.200935 59.44295,28.767328 15.31993,15.164656 26.73112,33.400585 35.7662,57.156988 3.45027,9.07199 4.05478,10.29385 5.94528,12.01677 5.8125,5.29728 15.58664,5.29728 21.39914,0 1.88764,-1.72031 2.4966,-2.94894 5.90989,-11.92374 9.04481,-23.782114 20.50572,-42.109176 35.80159,-57.250018 7.76347,-7.684787 14.21492,-12.685382 22.3384,-17.314743 26.2699,-14.970548 60.10898,-15.763569 88.78658,-2.08072 12.62979,6.02601 25.98182,16.561136 34.99031,27.608349 14.04823,17.227486 23.36998,39.996002 26.30602,64.252862 0.82083,6.78151 0.81204,23.58619 -0.0159,30.25887 -5.07341,40.89173 -29.69292,79.90478 -81.94921,129.85994 -20.39965,19.50134 -39.31516,36.22014 -88.27455,78.02299 -18.82988,16.07746 -38.4,32.82817 -43.48915,37.22382 -5.08916,4.39563 -9.6694,8.33762 -10.17832,8.75996 -0.77979,0.64714 -5.9695,-3.55007 -33.00241,-26.6909 z"
   id="path913" /></svg>
