<?xml version="1.0" encoding="UTF-8" standalone="no"?>
<svg
   xmlns:dc="http://purl.org/dc/elements/1.1/"
   xmlns:cc="http://creativecommons.org/ns#"
   xmlns:rdf="http://www.w3.org/1999/02/22-rdf-syntax-ns#"
   xmlns:svg="http://www.w3.org/2000/svg"
   xmlns="http://www.w3.org/2000/svg"
   xmlns:sodipodi="http://sodipodi.sourceforge.net/DTD/sodipodi-0.dtd"
   xmlns:inkscape="http://www.inkscape.org/namespaces/inkscape"
   enable-background="new 0 0 24 24"
   height="18"
   viewBox="0 0 20 18"
   width="20"
   version="1.1"
   id="svg58"
   sodipodi:docname="person_search-24px.svg"
   inkscape:version="1.0.1 (3bc2e813f5, 2020-09-07)">
  <metadata
     id="metadata64">
    <rdf:RDF>
      <cc:Work
         rdf:about="">
        <dc:format>image/svg+xml</dc:format>
        <dc:type
           rdf:resource="http://purl.org/dc/dcmitype/StillImage" />
      </cc:Work>
    </rdf:RDF>
  </metadata>
  <defs
     id="defs62" />
  <sodipodi:namedview
     pagecolor="#ffffff"
     bordercolor="#666666"
     borderopacity="1"
     objecttolerance="10"
     gridtolerance="10"
     guidetolerance="10"
     inkscape:pageopacity="0"
     inkscape:pageshadow="2"
     inkscape:window-width="1920"
     inkscape:window-height="1001"
     id="namedview60"
     showgrid="false"
     inkscape:zoom="34.583333"
     inkscape:cx="4.5386728"
     inkscape:cy="6.7156981"
     inkscape:window-x="-9"
     inkscape:window-y="-9"
     inkscape:window-maximized="1"
     inkscape:current-layer="g54" />
  <g
     id="g46"
     transform="translate(-2,-4)">
    <rect
       fill="none"
       height="24"
       width="24"
       id="rect44"
       x="0"
       y="0" />
  </g>
  <g
     id="g56"
     transform="translate(-2,-4)">
    <g
       id="g54">
      <circle
         cx="10"
         cy="8"
         id="circle48"
         r="4"
         style="fill:#1b7cd1;fill-opacity:1" />
      <path
         d="M 10.35,14.01 C 7.62,13.91 2,15.27 2,18 v 2 h 9.54 C 9.07,17.24 10.31,14.11 10.35,14.01 Z"
         id="path50"
         style="fill:#1b7cd1;fill-opacity:1" />
      <path
         d="M 19.43,18.02 C 19.79,17.43 20,16.74 20,16 c 0,-2.21 -1.79,-4 -4,-4 -2.21,0 -4,1.79 -4,4 0,2.21 1.79,4 4,4 0.74,0 1.43,-0.22 2.02,-0.57 L 20.59,22 22,20.59 Z M 16,18 c -1.1,0 -2,-0.9 -2,-2 0,-1.1 0.9,-2 2,-2 1.1,0 2,0.9 2,2 0,1.1 -0.9,2 -2,2 z"
         id="path52"
         style="fill:#1b7cd1;fill-opacity:1" />
    </g>
  </g>
</svg>
