<?xml version="1.0" encoding="UTF-8" standalone="no"?>
<svg
   xmlns:dc="http://purl.org/dc/elements/1.1/"
   xmlns:cc="http://creativecommons.org/ns#"
   xmlns:rdf="http://www.w3.org/1999/02/22-rdf-syntax-ns#"
   xmlns:svg="http://www.w3.org/2000/svg"
   xmlns="http://www.w3.org/2000/svg"
   xmlns:sodipodi="http://sodipodi.sourceforge.net/DTD/sodipodi-0.dtd"
   xmlns:inkscape="http://www.inkscape.org/namespaces/inkscape"
   version="1.1"
   id="Capa_1"
   x="0px"
   y="0px"
   viewBox="0 0 477.4 355.75895"
   xml:space="preserve"
   sodipodi:docname="old-galleon.svg"
   width="477.39999"
   height="355.75894"
   inkscape:version="1.0.1 (3bc2e813f5, 2020-09-07)"><metadata
   id="metadata909"><rdf:RDF><cc:Work
       rdf:about=""><dc:format>image/svg+xml</dc:format><dc:type
         rdf:resource="http://purl.org/dc/dcmitype/StillImage" /></cc:Work></rdf:RDF></metadata><defs
   id="defs907" /><sodipodi:namedview
   pagecolor="#ffffff"
   bordercolor="#666666"
   borderopacity="1"
   objecttolerance="10"
   gridtolerance="10"
   guidetolerance="10"
   inkscape:pageopacity="0"
   inkscape:pageshadow="2"
   inkscape:window-width="1920"
   inkscape:window-height="1017"
   id="namedview905"
   showgrid="false"
   inkscape:zoom="1.4306661"
   inkscape:cx="238.7"
   inkscape:cy="177.88093"
   inkscape:window-x="4"
   inkscape:window-y="-8"
   inkscape:window-maximized="1"
   inkscape:current-layer="Capa_1" />
<path
   d="M 469.9,240.19793 H 442.7 301.9 c -0.365,0 -0.721,0.035 -1.072,0.085 -0.072,0.01 -0.144,0.021 -0.216,0.033 -0.348,0.06 -0.688,0.14 -1.017,0.247 -0.03,0.01 -0.058,0.022 -0.088,0.032 -0.315,0.106 -0.62,0.234 -0.915,0.38 -0.047,0.023 -0.094,0.043 -0.141,0.068 -0.304,0.158 -0.595,0.336 -0.873,0.532 -0.053,0.037 -0.103,0.077 -0.154,0.115 -0.259,0.193 -0.506,0.399 -0.738,0.623 -0.022,0.021 -0.046,0.04 -0.067,0.061 -0.241,0.24 -0.461,0.499 -0.669,0.77 -0.045,0.059 -0.09,0.118 -0.133,0.178 -0.201,0.279 -0.387,0.57 -0.549,0.877 -0.017,0.032 -0.031,0.066 -0.047,0.098 -0.157,0.308 -0.292,0.628 -0.406,0.958 -0.008,0.025 -0.022,0.046 -0.03,0.071 -4.933,14.798 -16.929,25.533 -32.166,29.617 v -47.185 h 56.5 c 3.256,0 6.14,-2.1 7.139,-5.199 l 4.155,-12.892 c 11.266,-34.941 11.266,-71.878 10e-4,-106.819 l -4.156,-12.892 c -0.999,-3.099 -3.883,-5.199 -7.139,-5.199 h -58.501 v -18.556 H 276.3 c 4.143,0 7.5,-3.358 7.5,-7.5 0,-4.142 -3.357,-7.5 -7.5,-7.5 h -15.683 v -2.231 l 46.369,-17.658 c 2.969,-1.13 4.903,-4.008 4.829,-7.184 -0.074,-3.176 -2.142,-5.96 -5.159,-6.951 l -51.2,-16.803 c -2.287,-0.75 -4.791,-0.358 -6.738,1.052 -1.947,1.411 -3.101,3.669 -3.101,6.074 v 36.128 c -0.003,0.115 -0.003,0.231 0,0.347 v 7.226 H 231.5 c -4.142,0 -7.5,3.358 -7.5,7.5 0,4.142 3.358,7.5 7.5,7.5 h 14.118 v 18.556 h -54.499 c -2.398,0 -4.651,1.146 -6.063,3.084 -1.412,1.938 -1.812,4.435 -1.076,6.717 l 4.156,12.892 c 1.988,6.167 3.588,12.402 4.808,18.679 0.037,0.298 0.094,0.589 0.165,0.875 4.894,25.946 3.241,52.583 -4.973,78.06 l -4.156,12.892 c -0.736,2.282 -0.336,4.778 1.076,6.717 1.412,1.938 3.665,3.084 6.063,3.084 h 56.5 v 49 H 168.6 v -230.854 -25.6 c 0,-4.142 -3.358,-7.5 -7.5,-7.5 -4.142,0 -7.5,3.358 -7.5,7.5 v 23.572 l -88.579,151.849 c -1.353,2.319 -1.363,5.186 -0.025,7.514 1.337,2.329 3.818,3.765 6.503,3.765 h 82.1 v 69.756 h -20.277 c -10.258,0 -19.17,-6.892 -21.765,-16.793 l -7.068,-40.981 c -0.62,-3.598 -3.74,-6.226 -7.391,-6.226 H 81.4 20.3 7.5 c -4.142,0 -7.5,3.358 -7.5,7.5 0,4.142 3.358,7.5 7.5,7.5 h 7.22 l 7.541,25.136 c 0.006,0.021 0.012,0.042 0.019,0.063 l 29.237,97.456 c 0.952,3.172 3.872,5.345 7.184,5.345 h 320 c 2.564,0 4.95,-1.31 6.327,-3.473 l 61.79,-97.088 H 469.9 c 4.143,0 7.5,-3.358 7.5,-7.5 0,-4.142 -3.358,-7.5 -7.5,-7.5 z m -209.282,-222.34 21.247,6.973 -21.247,8.091 z m -58.205,191.811 c 8.099,-25.119 10.375,-51.27 6.83,-76.969 H 296.9 c 4.143,0 7.5,-3.358 7.5,-7.5 0,-4.142 -3.357,-7.5 -7.5,-7.5 h -90.411 c -1.139,-4.982 -2.492,-9.936 -4.076,-14.85 l -0.996,-3.09 h 112.24 l 2.48,7.693 c 10.294,31.93 10.294,65.684 0,97.614 l -2.48,7.693 H 201.417 Z M 84.558,192.00293 153.6,73.64493 v 118.358 z m 290.025,148.756 H 64.28 l -24.767,-82.556 H 75.9 c 4.142,0 7.5,-3.358 7.5,-7.5 0,-4.142 -3.358,-7.5 -7.5,-7.5 H 35.013 l -4.633,-15.444 h 51.02 9.382 l 6.045,35.05 c 0.032,0.183 0.07,0.365 0.115,0.544 4.181,16.725 19.141,28.405 36.38,28.405 h 115.299 c 26.29,0 48.646,-14.176 58.423,-36.561 h 121.991 z"
   id="path872"
   style="fill:#848991;fill-opacity:1" />
<g
   id="g874"
   transform="translate(0,-60.81907)">
</g>
<g
   id="g876"
   transform="translate(0,-60.81907)">
</g>
<g
   id="g878"
   transform="translate(0,-60.81907)">
</g>
<g
   id="g880"
   transform="translate(0,-60.81907)">
</g>
<g
   id="g882"
   transform="translate(0,-60.81907)">
</g>
<g
   id="g884"
   transform="translate(0,-60.81907)">
</g>
<g
   id="g886"
   transform="translate(0,-60.81907)">
</g>
<g
   id="g888"
   transform="translate(0,-60.81907)">
</g>
<g
   id="g890"
   transform="translate(0,-60.81907)">
</g>
<g
   id="g892"
   transform="translate(0,-60.81907)">
</g>
<g
   id="g894"
   transform="translate(0,-60.81907)">
</g>
<g
   id="g896"
   transform="translate(0,-60.81907)">
</g>
<g
   id="g898"
   transform="translate(0,-60.81907)">
</g>
<g
   id="g900"
   transform="translate(0,-60.81907)">
</g>
<g
   id="g902"
   transform="translate(0,-60.81907)">
</g>
</svg>
